<svg version="1.2" xmlns="http://www.w3.org/2000/svg" viewBox="0 0 1600 1600" width="1600" height="1600">
	<title>ABSA_Group_Limited_Logo-svg</title>
	<style>
		.s0 { fill: #a90c2b } 
	</style>
	<g id="Layer">
		<g id="Layer">
			<path id="Layer" fill-rule="evenodd" class="s0" d="m1434.6 504c-111.6-238.6-353.8-404-634.6-404-280.8 0-523 165.4-634.6 404l-90.6-42.2c127.4-272.8 404.2-461.8 725.2-461.8 321 0 597.8 189 725.2 461.8zm-1334.6 296c0 84 14.9 164.8 42.1 239.5l-94 34.2c-31.1-85.4-48.1-177.6-48.1-273.7 0-96.2 17-188.4 48.1-273.8l94 34.2c-27.2 74.8-42.1 155.4-42.1 239.6zm65.5 296c111.5 238.6 353.7 404 634.5 404 280.8 0 523.1-165.4 634.6-404l90.6 42.2c-127.4 272.8-404.2 461.8-725.2 461.8-320.9 0-597.7-189-725.2-461.8zm1386.5-569.7c31.1 85.4 48.1 177.6 48.1 273.8 0 96.1-17 188.3-48.1 273.7l-94-34.2c27.2-74.7 42.1-155.4 42.1-239.5 0-84.2-14.9-164.9-42.1-239.6zm-752.6 273.5c0 125.8-59.1 159.6-159.3 159.6-44.1 0-88.7-10.3-123.1-21.2v-448.6l83.2-9.1v167.1c18.5-4 39.9-7.5 59.7-7.5 80.3 0 139.5 33.9 139.5 159.7zm-85.8-0.1c0-67.7-21.7-88.2-66.9-88.2-16.7 0-31.6 2.7-46.5 6.1v164.4c18.1 4.2 31.3 6 46.5 6 45.2 0 67-20.5 66.9-88.3zm387.7 58.2c0 65.2-33.1 101.4-139.9 101.4-44 0-74.2-6.1-106.2-17.5l-6.6-68.8c24.7 7.8 58.5 15.1 106.1 15.1 42.8 0 62.8-5.4 62.8-30.8 0-29-23-27.8-67-28.4-68.2-1.2-108.6-18.1-108.6-83.9 0-68.2 38.6-104.5 138.8-104.5 23.5 0 59.1 4.3 91 13.9l6.6 68.8c-24.7-6-63.9-11.4-91.6-11.4-45.9 0-61 5.4-61 30.8 0 19.4 22.3 19.9 57.9 20.6 63.9 1.2 117.6 12.6 117.7 94.7zm-642.3-112.9v193.3c-34.4 10.9-79 21.1-125.5 21.1-100 0-133.2-36.2-133.2-101.4 0-80.4 53.6-91.2 117.6-94.8l57.9-3.1v-9.7c0-35-17.5-38.6-60.9-38.6-25.9 0-65.1 5.4-91.7 11.4l6.7-68.8c31.9-9.6 67.5-13.9 94-13.9 97.2 0 135.1 36.3 135.1 104.5zm-83.2 73.7l-47.1 3c-30.1 1.9-44.6 6.1-44.6 32 0 24.7 15.1 36.3 51.3 36.3 15 0 29.5-2.4 40.4-4.3zm1024.1-73.7v193.3c-34.4 10.9-79 21.1-125.5 21.1-100.1 0-133.3-36.2-133.3-101.4 0-82.1 53.7-91.2 117.6-94.8l58-3v-9.7c0-35.1-17.5-38.7-60.9-38.7-25.9 0-65.1 5.5-91.7 11.5l6.6-68.8c32-9.7 67.6-13.9 94.1-13.9 97.1 0 135.1 36.3 135.1 104.4zm-83.2 73.7l-47.1 3.1c-30.1 1.8-44.6 6-44.6 32 0 24.7 15.1 36.2 51.3 36.2 15 0 29.5-2.4 40.4-4.2z"/>
		</g>
	</g>
</svg>