<svg xmlns="http://www.w3.org/2000/svg" viewBox="0 0 600 120">
  <g fill="#3B8AFF">
    <!-- Cloud icon -->
    <path d="M45.5,95.5c-17.4,0-31.5-14.1-31.5-31.5c0-15.1,10.7-27.8,24.9-30.8C41.3,18.4,53.6,8,68.2,8
      c15.3,0,28,11.5,29.8,26.3C112.6,37.1,124,50.3,124,66c0,16.3-13.2,29.5-29.5,29.5H45.5z"/>
    <!-- B -->
    <path d="M155,25h22c6.5,0,11.5,1.5,15,4.5s5.3,7,5.3,12c0,3.5-0.9,6.5-2.8,8.8c-1.8,2.3-4.3,3.9-7.3,4.7v0.3
      c3.8,0.7,6.8,2.5,8.8,5.3c2.1,2.8,3.1,6.3,3.1,10.3c0,5.5-2,9.8-5.9,13.1c-3.9,3.3-9.1,4.9-15.6,4.9H155V25z
      M175.8,51.5c3.3,0,5.9-0.8,7.8-2.5c1.9-1.7,2.8-4,2.8-6.8c0-3-0.9-5.3-2.6-6.8c-1.7-1.5-4.3-2.3-7.6-2.3h-8.8v18.4H175.8z
      M176.8,76.5c3.5,0,6.3-0.9,8.3-2.8c2-1.8,3-4.3,3-7.5c0-3.1-1-5.5-3.1-7.3c-2.1-1.8-4.9-2.6-8.5-2.6h-9v20.2H176.8z"/>
    <!-- l -->
    <path d="M210,25h12.5v63.5H210V25z"/>
    <!-- u -->
    <path d="M233,88.5V42h12.2v28.8c0,3.5,0.8,6.1,2.3,7.8c1.5,1.8,3.8,2.6,6.8,2.6c3.3,0,5.9-1.1,7.8-3.3
      c1.9-2.2,2.8-5.3,2.8-9.1V42h12.2v46.5h-11.5l-0.5-6.5h-0.3c-3.3,5-8.1,7.5-14.5,7.5c-5.3,0-9.4-1.6-12.3-4.8
      C234.4,81.5,233,77,233,71.3V88.5z"/>
    <!-- e -->
    <path d="M290,65.8c0-7.3,2.2-13.1,6.5-17.5c4.3-4.4,10-6.5,17-6.5c6.8,0,12.1,2.1,16,6.3c3.9,4.2,5.8,9.8,5.8,16.8
      v4.5h-33.3c0.3,3.8,1.6,6.8,4,9c2.4,2.2,5.6,3.3,9.6,3.3c3,0,5.8-0.3,8.3-1c2.5-0.7,5.1-1.7,7.8-3.1v9.5
      c-2.5,1.3-5.1,2.3-7.8,2.9c-2.7,0.6-5.9,0.9-9.8,0.9c-7.3,0-13.1-2.2-17.5-6.5C292.2,80.1,290,74,290,65.8z
      M323.3,62c-0.1-3.3-1-5.9-2.8-7.8c-1.8-1.9-4.1-2.9-7.1-2.9c-3,0-5.5,1-7.5,3c-2,2-3.3,4.5-3.8,7.8H323.3z"/>
    <!-- S -->
    <path d="M355,78.3l10.5-1c0.5,3,1.8,5.3,3.9,6.8c2.1,1.5,5,2.3,8.6,2.3c3.8,0,6.6-0.7,8.5-2c1.9-1.3,2.8-3,2.8-5
      c0-1.8-0.9-3.3-2.6-4.3c-1.2-0.7-4-1.5-8.5-2.6c-6-1.4-10.1-2.6-12.5-3.8c-2.4-1.1-4.2-2.7-5.5-4.6c-1.3-1.9-1.9-4.1-1.9-6.5
      c0-2.2,0.5-4.2,1.6-6c1.1-1.8,2.5-3.3,4.4-4.5c1.4-0.9,3.3-1.7,5.8-2.3c2.5-0.6,5.1-0.9,7.9-0.9c4.3,0,8,0.6,11.1,1.9
      c3.1,1.3,5.5,3,7,5.1c1.5,2.1,2.6,4.9,3.1,8.3l-10.4,0.9c-0.4-2.5-1.5-4.4-3.3-5.8c-1.8-1.4-4.3-2-7.4-2
      c-3.8,0-6.5,0.6-8.1,1.8c-1.1,0.8-1.6,1.9-1.6,3.1c0,1.2,0.5,2.2,1.5,3c1.3,1.1,4.5,2.2,9.8,3.4c5.3,1.2,9,2.4,11.3,3.5
      c2.3,1.2,4,2.7,5.3,4.7c1.3,2,1.9,4.3,1.9,7c0,2.5-0.7,4.9-2.1,7.1c-1.4,2.2-3.5,4-6.3,5.3c-2.8,1.3-6.3,1.9-10.4,1.9
      c-7.8,0-13.3-1.5-16.5-4.5C357.3,86.3,355.5,82.7,355,78.3z"/>
    <!-- k -->
    <path d="M408,25h12.5v22l-0.3,7.5h0.3c1.3-1.8,2.8-3.3,4.5-4.6l13.5-7.9h15l-18.5,14.5L455,88.5h-13.8l-14-23l-6.8,5.3
      v17.8H408V25z"/>
    <!-- y -->
    <path d="M460,42h13l9.5,28c0.7,2.1,1.3,4.7,1.8,7.8h0.3c0.4-2.3,1-4.9,1.8-7.5l9.3-28.3h12.8l-19,54.5
      c-2,5.7-4.6,9.7-7.8,12.1c-3.2,2.4-7,3.6-11.5,3.6c-2.3,0-4.5-0.2-6.5-0.7v-9.8c1.5,0.3,3.1,0.5,4.8,0.5
      c2.3,0,4.3-0.7,5.9-2.1c1.7-1.4,3-3.5,3.9-6.3l0.8-2.3L460,42z"/>
    <!-- dot -->
    <circle cx="520" cy="84" r="6"/>
  </g>
</svg>
