<svg width="146" height="24" viewBox="0 0 146 24" fill="none" xmlns="http://www.w3.org/2000/svg">
<path fill-rule="evenodd" clip-rule="evenodd" d="M6.98952 4.85638C5.79861 4.85638 4.82963 5.83071 4.82963 7.02818V15.4718C4.82963 16.6694 5.79861 17.6436 6.98952 17.6436L27.7119 17.6433C28.3143 17.6578 28.6938 17.9114 29.1011 18.6087C29.4246 19.1624 29.7655 19.9956 30.2494 21.2125C30.3017 21.3439 30.3711 21.5164 30.4371 21.6805C30.5278 21.9058 30.6121 22.1152 30.637 22.1807C30.6424 22.1948 30.6516 22.2273 30.6516 22.2433V22.2598C30.6516 22.3923 30.5447 22.5 30.4127 22.5H6.98952C3.13553 22.5 0 19.347 0 15.4718V7.02818C0 3.15282 3.13553 0 6.98952 0H30.4127C30.5447 0 30.6516 0.107656 30.6516 0.240175V0.256708C30.6516 0.272737 30.6424 0.305172 30.637 0.319308C30.6122 0.384317 30.5289 0.59152 30.4389 0.815193C30.3723 0.980595 30.3021 1.155 30.2494 1.28758C29.7655 2.50436 29.4246 3.33759 29.1011 3.89126C28.6938 4.58856 28.3143 4.84212 27.7119 4.85651L6.98952 4.85638ZM107.384 0.256809V0.240402C107.384 0.107883 107.277 0.000605801 107.145 0.000605801H83.7226C79.868 0.000605801 76.7327 3.1533 76.7327 7.0279L76.7451 22.1464L76.746 22.1582L76.7464 22.1665C76.7591 22.3484 76.9172 22.4998 77.1029 22.4998C77.1406 22.4998 77.1794 22.4922 77.2134 22.482C77.514 22.3591 77.8168 22.2467 78.0979 22.1425L78.0982 22.1424L78.0988 22.1421C78.2903 22.0711 78.4717 22.0038 78.6354 21.9394C79.1412 21.7413 79.5693 21.552 79.9296 21.3702C81.2099 20.7278 81.6415 20.1814 81.6403 19.6778C81.6379 19.0341 81.6315 16.6398 81.6315 16.6398L97.4993 16.6362C97.5434 16.6349 97.5872 16.6324 97.6286 16.6286C98.1583 16.5818 98.5111 16.3169 98.8888 15.6707C98.9491 15.567 99.0105 15.4536 99.072 15.3299C99.3444 14.7923 99.6431 14.0565 100.037 13.067C100.099 12.911 100.185 12.697 100.261 12.5079L100.262 12.5051C100.337 12.3174 100.403 12.1548 100.424 12.099C100.43 12.0851 100.439 12.0523 100.439 12.0359V12.0195C100.439 11.8869 100.332 11.7797 100.201 11.7797H81.5625V7.0279C81.5625 6.16716 82.0645 5.42253 82.7901 5.07167C83.0725 4.93536 83.3875 4.85585 83.7226 4.85585L104.444 4.85711C105.047 4.84197 105.426 4.58829 105.834 3.89162C105.894 3.78813 105.955 3.67454 106.018 3.55085C106.289 3.01194 106.588 2.27615 106.982 1.28793C107.045 1.13054 107.132 0.913954 107.208 0.72361L107.208 0.723389L107.213 0.711724C107.286 0.530125 107.349 0.374343 107.37 0.319914C107.375 0.304769 107.384 0.273216 107.384 0.256809ZM119.166 15.4718C119.166 16.6693 120.135 17.6436 121.326 17.6436H137.505C138.696 17.6436 139.665 16.6693 139.665 15.4718L139.665 2.96506C139.679 2.35938 139.931 1.97773 140.625 1.56818C141.176 1.24294 142.004 0.900158 143.214 0.413497C143.347 0.360237 143.521 0.289293 143.687 0.222116L143.689 0.221283L143.69 0.22088C143.91 0.131255 144.113 0.0485773 144.177 0.0238913C144.191 0.0184643 144.224 0.00912488 144.24 0.00912488H144.256C144.388 0.00912488 144.495 0.116655 144.495 0.2493V15.4718C144.495 19.3471 141.359 22.5 137.505 22.5H121.326C117.472 22.5 114.336 19.3471 114.336 15.4718V0.2493C114.336 0.116655 114.443 0.00912488 114.575 0.00912488H114.592C114.608 0.00912488 114.64 0.0184643 114.654 0.0238913C114.718 0.048488 114.92 0.130658 115.139 0.219908C115.306 0.287736 115.483 0.359653 115.617 0.413497C116.827 0.900158 117.656 1.24294 118.206 1.56818C118.9 1.97773 119.152 2.35938 119.166 2.96506L119.166 15.4718ZM38.6052 22.1661L38.6051 22.1554L38.6052 22.1459L38.5923 7.05652C38.6208 3.18129 41.7469 0.019007 45.6009 0.00726961H61.8206C65.6746 0.019007 68.8007 3.18129 68.8292 7.05652L68.8163 22.1459V22.1674C68.8026 22.3485 68.6444 22.4999 68.4583 22.4999C68.421 22.4999 68.3819 22.4928 68.3482 22.4817C68.0462 22.3586 67.742 22.2458 67.4596 22.141C67.2692 22.0704 67.0888 22.0034 66.9258 21.9395C64.6297 21.0385 63.9196 20.3231 63.9216 19.6784L63.9307 16.6395H43.4908L43.4998 19.6784C43.5018 20.3231 42.7918 21.0385 40.4957 21.9395C40.3328 22.0034 40.1524 22.0703 39.9622 22.1409L39.9618 22.141C39.6795 22.2458 39.3752 22.3586 39.0732 22.4817C39.0396 22.4928 39.0004 22.4999 38.9632 22.4999C38.777 22.4999 38.612 22.3475 38.6052 22.1661ZM63.9298 11.7997V7.05905C63.9298 5.79999 62.9147 4.77934 61.6626 4.77934H45.7589C44.5067 4.77934 43.4917 5.79999 43.4917 7.05905V11.7997H63.9298Z" fill="#F7F7F8"/>
</svg>
