<svg width="178" height="50" viewBox="0 0 178 50" fill="none" xmlns="http://www.w3.org/2000/svg">
<path d="M56.8101 17.6686V32.2947C56.8101 34.3108 55.1565 35.9238 53.1354 35.8871H53.0987H51.1879C50.2325 35.9238 49.4608 36.7302 49.4608 37.6833V46.3343C49.4608 48.3504 47.8072 49.9633 45.8229 49.9633C45.7861 49.9633 45.7861 49.9633 45.7494 49.9633H16.5359C14.5516 49.9633 12.9348 48.3504 12.9348 46.371V45.0513C12.9348 44.0616 12.1263 43.2551 11.1342 43.2551H9.18662C7.20231 43.2551 5.58547 41.6422 5.54872 39.6628V37.7566C5.54872 36.7669 4.7403 35.9604 3.74814 35.9238C3.74814 35.9238 3.74814 35.9238 3.7114 35.9238H3.6379C1.61685 35.9238 0 34.3108 0 32.3314V17.6686C0 15.6891 1.61685 14.0396 3.60116 14.0396H3.74814C4.70355 14.0762 5.51197 13.3065 5.54872 12.3534C5.54872 12.3167 5.54872 12.2801 5.54872 12.2434V3.70235C5.51197 1.68622 7.12882 0.0366569 9.14988 0H9.18662H38.5103C40.5314 0 42.1482 1.64956 42.1482 3.66569V3.70235V5.05865C42.1482 6.01173 42.9199 6.74487 43.8386 6.78152C43.8386 6.78152 43.8386 6.78152 43.8753 6.78152H45.7861C47.8072 6.74487 49.4608 8.32111 49.4975 10.3372V10.3739V12.2801C49.4608 13.2331 50.1957 14.0396 51.1511 14.0762C51.1879 14.0762 51.1879 14.0762 51.2246 14.0762H53.1354C55.1565 14.0396 56.8101 15.6158 56.8468 17.632C56.8101 17.632 56.8101 17.6686 56.8101 17.6686Z" fill="#FF490F"/>
<path d="M68.7888 32.9178C65.2978 32.9178 64.0117 31.5982 64.0117 27.126V22.8738C64.0117 18.4017 65.2978 17.082 68.7888 17.082H69.0827C72.3532 17.082 73.5658 18.2184 73.7863 22.4706H70.2954C70.2219 20.3078 69.8177 19.9779 68.9725 19.9779H68.8623C67.6864 19.9779 67.5026 20.6011 67.5026 22.5806V27.4559C67.4659 28.1524 67.5394 28.8489 67.7599 29.5087C67.9068 29.8753 68.2743 30.0586 68.899 30.0586H69.0092C69.8544 30.0586 70.2586 29.7287 70.3321 27.5659H73.823C73.6026 31.8181 72.3899 32.9545 69.1195 32.9545H68.7888V32.9178Z" fill="white"/>
<path d="M81.9067 32.6979H75.0352V17.302H78.4893V29.6554H81.87V32.6979H81.9067Z" fill="white"/>
<path d="M87.345 32.9178C83.8174 32.9178 82.5312 31.6715 82.5312 27.126V22.9105C82.5312 18.365 83.8174 17.082 87.345 17.082H87.639C91.0932 17.082 92.4528 18.365 92.4528 22.9105V27.126C92.4528 31.6715 91.0932 32.9178 87.639 32.9178H87.345ZM87.5288 30.0219C88.7047 30.0219 88.9251 29.3987 88.9251 27.4193V22.5439C88.9251 20.6011 88.6679 19.9413 87.5288 19.9413H87.3818C86.1692 19.9413 85.9854 20.5644 85.9854 22.5439V27.4193C85.9854 29.4354 86.1692 30.0219 87.3818 30.0219H87.5288Z" fill="white"/>
<path d="M98.2215 32.9178C94.7306 32.9178 93.5547 31.8181 93.5547 27.346V17.302H97.0456V27.4193C97.0456 29.4354 97.3028 29.7653 98.2215 29.7653H98.3685C99.2871 29.7653 99.5811 29.3988 99.5811 27.4193V17.302H103.072V27.346C103.072 31.8181 101.896 32.9178 98.442 32.9178H98.2215Z" fill="white"/>
<path d="M114.061 26.8695C114.061 31.3416 112.702 32.6613 109.247 32.6613H104.434V17.2654H109.247C112.738 17.2654 114.061 18.5484 114.061 23.0938V26.8695ZM107.851 20.1613V29.802H109.137C110.276 29.802 110.57 29.1422 110.57 27.1994V22.7639C110.57 20.8211 110.276 20.1613 109.137 20.1613H107.851Z" fill="white"/>
<path d="M129.385 32.6979H126.078V21.2976H125.931L123.763 32.6979H120.97L118.802 21.2976H118.655V32.6979H115.348V17.302H120.896L122.476 25.8064H122.587L124.13 17.302H129.422V32.6979H129.385Z" fill="white"/>
<path d="M135.337 32.9178C131.846 32.9178 130.67 31.8181 130.67 27.346V17.302H134.161V27.4193C134.161 29.4354 134.418 29.7653 135.337 29.7653H135.484C136.402 29.7653 136.696 29.3988 136.696 27.4193V17.302H140.187V27.346C140.187 31.8181 139.011 32.9178 135.557 32.9178H135.337Z" fill="white"/>
<path d="M145.883 32.9178C144.303 32.9178 143.164 32.5879 142.392 31.8915C141.621 31.195 141.253 29.9853 141.18 28.2624H144.744C144.818 29.8753 145.295 30.0953 146.03 30.0953C146.875 30.0953 147.206 29.802 147.206 28.4457V28.0425C147.206 27.0161 146.986 26.5762 145.92 26.4662L144.854 26.3563C142.172 26.063 141.253 25.0733 141.253 21.9941V21.8108C141.253 18.2184 142.576 17.0454 145.736 17.0454H145.993C149.117 17.0454 150.55 18.1818 150.66 21.8475H147.096C147.022 20.1246 146.655 19.8313 145.883 19.8313C145.038 19.8313 144.744 20.0879 144.744 21.4809V21.8475C144.744 22.8739 144.965 23.3137 146.03 23.4237L147.096 23.5337C149.742 23.8269 150.697 24.8167 150.697 27.8959V28.0791C150.697 31.7448 149.227 32.8445 146.104 32.8445L145.883 32.9178Z" fill="white"/>
<path d="M156.429 32.9178C152.938 32.9178 151.652 31.5982 151.652 27.126V22.8738C151.652 18.4017 152.938 17.082 156.429 17.082H156.723C159.994 17.082 161.206 18.2184 161.427 22.4706H157.936C157.862 20.3078 157.458 19.9779 156.613 19.9779H156.503C155.327 19.9779 155.143 20.6011 155.143 22.5806V27.4559C155.107 28.1524 155.18 28.8489 155.4 29.5087C155.547 29.8753 155.915 30.0586 156.54 30.0586H156.65C157.495 30.0586 157.899 29.7287 157.973 27.5659H161.464C161.243 31.8181 160.031 32.9545 156.76 32.9545H156.429V32.9178Z" fill="white"/>
<path d="M169.51 32.6979H162.639V17.302H166.093V29.6554H169.474V32.6979H169.51Z" fill="white"/>
<path d="M177.998 32.6979H170.465V17.302H177.998V20.2712H173.956V23.497H177.998V26.4662H173.956V29.692H177.998V32.6979Z" fill="white"/>
<path d="M39.0238 13.7831V12.3168C39.0238 11.5837 38.4358 10.9971 37.7377 10.9971H17.7843C17.1229 10.9971 16.6084 11.5103 16.6084 12.1702C16.6084 12.2068 16.6084 12.2068 16.6084 12.2435V13.7831C16.6084 15.3593 15.3223 16.6056 13.7422 16.6423H12.2723C11.5374 16.6423 10.9495 17.2288 10.9495 17.9253V32.0749C10.9495 32.808 11.5374 33.3578 12.2723 33.3578H13.7422C15.2856 33.3945 16.5717 34.6408 16.6084 36.2171V37.6834C16.6084 38.4165 17.1964 39.003 17.8946 39.003H37.6642C38.3991 39.003 38.987 38.4165 38.987 37.72V36.2537C38.987 34.7142 40.1997 33.4678 41.743 33.3945H43.3599C44.0213 33.4312 44.5725 33.9444 44.6093 34.6408V36.2537C44.6093 37.7933 43.3599 39.0397 41.8165 39.0397H41.7798H40.3099C39.575 39.0397 38.987 39.6628 38.987 40.3593V40.396V41.8622C38.987 43.4018 37.7377 44.6115 36.2311 44.6115H19.4012C17.8578 44.6115 16.6452 43.3652 16.6452 41.8622V40.396C16.6452 39.6262 16.0205 39.003 15.2488 39.003H13.779C12.2356 39.003 11.023 37.7567 11.023 36.2171V34.7508C11.023 33.981 10.3983 33.3945 9.66335 33.3578H8.19349C6.65013 33.3578 5.4375 32.1115 5.4375 30.6086V19.3916C5.4375 17.852 6.68688 16.6423 8.19349 16.6423H9.66335C10.3983 16.679 11.023 16.0925 11.0597 15.3593C11.0597 15.3227 11.0597 15.286 11.0597 15.2493V8.24787C11.023 6.70828 12.2723 5.42529 13.779 5.42529H13.8157H36.3046C37.8479 5.42529 39.0973 6.70828 39.0973 8.21122V8.24787V9.71415C39.0973 10.4473 39.6852 11.0338 40.3834 11.0338H41.8533C43.3966 10.9971 44.6828 12.2068 44.6828 13.7464V13.7831V15.396C44.646 16.0558 44.1315 16.6056 43.4334 16.6423H41.8165C40.2732 16.6423 39.0238 15.396 39.0238 13.8564C39.0238 13.8197 39.0238 13.8197 39.0238 13.7831Z" fill="white"/>
</svg>
