<svg version="1.2" xmlns="http://www.w3.org/2000/svg" viewBox="0 0 1511 222" width="1511" height="222">
	<title>capitec-logo-svg</title>
	<defs>
		<clipPath clipPathUnits="userSpaceOnUse" id="cp1">
			<path d="m534.25 173.83v-125.44h976.25v125.45c0-0.01-976.25-0.01-976.25-0.01z"/>
		</clipPath>
		<clipPath clipPathUnits="userSpaceOnUse" id="cp2">
			<path d="m0 1.64h285.61v220.03h-285.61z"/>
		</clipPath>
	</defs>
	<style>
		.s0 { fill: #1d1d1b } 
		.s1 { fill: #e63934 } 
		.s2 { fill: #00466e } 
	</style>
	<g id="Layer">
		<g id="Layer">
			<g id="Clip-Path" clip-path="url(#cp1)">
				<path id="Layer" fill-rule="evenodd" class="s0" d="m1510.5 141.9c-17.2 24.5-46.2 31.9-73.6 31.9-47.1 0-86-24.3-86-62.2 0-36.2 38.9-62 87.3-62 22.4 0 44.3 4.2 61.3 19.2l1.5 1.3c0.7 0.7 1.5 1.5 2.3 2.3 1 1 1.8 1.9 1.8 1.9-2.1 2.1-4 3.3-5.9 3.9-2 0.6-3.9 0.4-5.5-0.1-3.3-1-5.5-3.3-5.5-3.3-11.9-11.5-26.8-15.7-43.1-15.7-34.8 0-57.3 19.8-57.3 53.2 0 29.6 17.6 47 47.1 49.8 2.8 0.5 5.8 0.7 9.2 0.7 5.1 0 10.2-0.6 15.2-1.6q2.5-0.5 4.9-1.1 2.4-0.6 4.8-1.5 2.3-0.8 4.6-1.8 2.3-1 4.5-2.2c8.6-4.4 16.1-10.3 21.2-17.3zm-890.3 31.9c-47 0-85.9-24.2-85.9-62.2 0-36.2 38.9-62 87.3-62 22.3 0 44.2 4.2 61.3 19.3l1.4 1.2c0.7 0.7 1.6 1.6 2.3 2.3 1 1 1.8 1.9 1.8 1.9-2 2.1-4 3.3-5.8 3.9-2.1 0.6-4 0.4-5.6-0.1q-0.8-0.2-1.5-0.5-0.7-0.4-1.4-0.8-0.7-0.4-1.3-0.9-0.7-0.5-1.2-1.1c-12-11.5-26.8-15.7-43.2-15.7-34.8 0-57.2 19.8-57.2 53.3 0 29.5 17.5 46.9 47 49.7 2.8 0.5 5.9 0.7 9.2 0.7 5.1 0 10.3-0.6 15.3-1.6q2.4-0.5 4.8-1.1 2.5-0.6 4.8-1.5 2.4-0.8 4.6-1.8 2.3-1 4.5-2.2c8.7-4.3 16.1-10.3 21.3-17.3l11.1 4.6c-17.1 24.5-46.2 31.9-73.6 31.9zm375.8-86.6c0 19.6-19.5 36.4-46.9 36.4h-39.8v-5.3c0-2.9 2.5-5.3 5.4-5.3h18.1c15.6 0 28.5-11.5 28.5-25.4 0-14-12.9-25.4-28.5-25.4h-28.6v109.6h-34.4v-120.1h79.3c27.4 0 46.9 16 46.9 35.5zm231.2-35.5h104.5v10.5h-70.1v40.3h65.4v10.4h-65.4v48.4h70.1v10.5h-104.5zm-414.8 120.1l-22.5-37.6h-46.5l4.6-8.1q0.4-0.5 0.9-1 0.5-0.4 1-0.7 0.6-0.3 1.2-0.5 0.7-0.1 1.3-0.1h31.2l-19.8-33.3-48 81.3h-17.7l74.1-123.4 77.1 123.4c0 0-36.9 0-36.9 0zm377.9-120.1h14.5v10.5h-46.3v109.6h-34.2v-109.6h-46.3v-10.5c0 0 112.3 0 112.3 0zm-169.2-0.1h34.6v120h-34.6c0 0 0-120 0-120z"/>
			</g>
		</g>
		<path id="Layer" fill-rule="evenodd" class="s1" d="m426.3 110.7c0 54-42.6 99.2-98.2 108.4v-60.7c0-28.6-23.5-52.1-52.2-52.1h-80.2c-23 0-41.8-18.6-41.8-41.5v-64.2h153.4c65.5 0 119 49.5 119 110.1z"/>
		<g id="Layer">
			<g id="Clip-Path" clip-path="url(#cp2)">
				<path id="Layer" fill-rule="evenodd" class="s2" d="m285.6 157v64.7h-166.6c-65.4 0-119-49.6-119-110.2 0-58.3 49.6-106.3 111.7-109.9v62c0 28.6 23.5 51.7 52.2 51.7h79.9c23 0 41.8 18.8 41.8 41.7z"/>
			</g>
		</g>
	</g>
</svg>