<?xml version="1.0" encoding="utf-8"?>
<!-- Generator: Adobe Illustrator 26.5.0, SVG Export Plug-In . SVG Version: 6.00 Build 0)  -->
<svg version="1.1" id="Layer_1" xmlns="http://www.w3.org/2000/svg" xmlns:xlink="http://www.w3.org/1999/xlink" x="0px" y="0px"
	 viewBox="0 0 512 512" style="enable-background:new 0 0 512 512;" xml:space="preserve">
<style type="text/css">
	.st0{fill:#007AC3;}
	.st1{fill:#FFFFFF;}
</style>
<g id="XMLID_1_">
	<rect id="XMLID_4_" y="152.51" class="st0" width="512" height="206.88"/>
	<path id="XMLID_3_" class="st1" d="M443.09,169.81c-16.19,0-26.85,1.38-38.19,5.12c-10.24,3.32-20.48,9.82-26.29,16.88
		c-3.87,4.57-8.3,13.28-9.69,18.96c-2.21,9.27-2.08,20.62,0.28,27.54c4.29,12.87,13.28,20.2,35.7,29.06
		c21.45,8.44,26.98,13.01,26.98,22.28c0,6.09-2.21,10.1-7.61,13.56c-4.29,2.77-8.99,4.29-17.16,5.4
		c-14.81,1.94-36.26-1.11-48.29-7.06c-1.8-0.97-3.46-1.52-3.6-1.38c-0.28,0.28-10.66,33.49-10.38,33.63
		c0.14,0.14,2.77,0.97,5.95,1.8c7.75,2.21,20.62,4.84,28.51,5.81c8.44,0.97,27.54,1.11,35.84,0.14c13.15-1.52,24.63-4.7,33.49-9.13
		c6.78-3.32,10.93-6.37,15.91-11.62c9.82-10.24,13.84-22.28,13.28-38.88c-0.28-6.09-0.55-8.16-1.8-11.76
		c-4.84-14.53-14.94-22.83-39.16-32.38c-14.11-5.54-19.93-9.13-22.42-13.84c-1.38-2.49-1.25-8.44,0-10.93
		c3.32-6.23,10.66-8.99,25.18-9.82c12.45-0.69,27.4,1.52,37.5,5.54c2.63,1.11,4.84,1.94,4.98,1.8c0,0,2.21-6.92,4.98-15.22
		c2.63-8.3,5.12-15.64,5.4-16.33c0.28-0.69,0.42-1.52,0.28-1.8c-0.55-0.97-10.66-3.87-17.3-4.98
		C465.64,170.5,456.93,169.81,443.09,169.81z"/>
	<path id="path2172" class="st1" d="M49.82,172.58l-0.97,4.29c-2.21,10.79-9.69,45.94-14.11,66.28
		c-2.63,12.32-6.64,31.14-8.86,41.79c-2.21,10.79-5.81,27.12-7.75,36.53c-1.94,9.27-3.6,17.3-3.6,17.57c0,0.42,6.37,0.55,21.17,0.42
		l21.17-0.14l1.94-10.24c5.81-29.61,21.03-104.89,21.17-105.03c0.14-0.14,0.42,0.83,0.83,2.21c0.28,1.38,1.66,6.09,3.04,10.52
		s4.84,15.64,7.61,25.05c5.67,18.82,10.79,35.84,15.36,51.06c1.66,5.54,3.74,12.18,4.43,14.81c0.83,2.63,1.94,6.37,2.49,8.16
		l1.11,3.46h27.81h27.81l0.28-1.25c0.28-1.52,4.01-18.54,8.72-40.82c1.8-8.58,5.81-27.54,8.86-42.07
		c11.49-54.11,17.3-81.64,17.3-82.06c0-0.28-9.41-0.55-21.03-0.55h-21.03l-2.35,11.62c-1.25,6.37-4.98,24.49-8.16,40.27
		c-3.18,15.78-7.33,36.53-9.41,46.08c-1.94,9.55-3.74,17.16-3.87,16.74c-0.14-0.42-1.52-4.7-3.04-9.55
		c-1.38-4.84-4.01-13.56-5.67-19.23c-1.66-5.67-5.54-18.68-8.58-29.06c-3.04-10.24-7.61-25.6-10.1-34.04s-4.98-17.02-5.67-19.1
		l-1.11-3.74H77.49L49.82,172.58L49.82,172.58z"/>
	<path id="XMLID_2_" class="st1" d="M222.24,172.58l-2.91,14.11c-3.18,15.08-7.06,34.04-21.86,105.31
		c-5.26,25.05-9.55,45.94-9.69,46.5c-0.28,0.97,1.11,0.97,22.28,0.97h22.42l0.55-2.63c0.55-2.77,8.44-40.27,12.18-58.53l2.08-10.24
		h26.15c20.76,0,26.15,0.14,26.15,0.69c0,0.42-1.38,7.33-3.04,15.5c-6.23,30.17-10.93,53.28-11.21,54.24
		c-0.28,0.97,1.11,0.97,22.28,0.97c12.45,0,22.56-0.14,22.56-0.42c0-0.55,1.8-9.27,8.86-43.04c3.04-14.67,9.82-46.91,20.62-99.49
		c2.49-11.9,4.7-22.14,4.84-22.69c0.28-0.97-0.97-0.97-22.28-0.97c-12.45,0-22.56,0.14-22.56,0.14c0,0.28-6.78,33.49-10.24,50.23
		c-1.38,6.78-2.49,12.45-2.49,12.73s-11.9,0.42-26.29,0.42h-26.29l0.42-2.08c0.42-2.35,11.9-58.4,12.45-60.19l0.28-1.25h-22.56
		h-22.69V172.58z"/>
</g>
</svg>
